<svg xmlns="http://www.w3.org/2000/svg" width="760" height="380" viewBox="0 0 760 380" role="img" aria-label="Search latency percentiles stay flat from 25 to 400 requests per second"><rect width="760" height="380" fill="#0d1117"/><text x="46" y="26" font-family="-apple-system,'Segoe UI',system-ui,sans-serif" font-size="16" font-weight="700" fill="#e6edf3">Search latency under load</text><text x="46" y="44" font-family="-apple-system,'Segoe UI',system-ui,sans-serif" font-size="12" fill="#8b949e">Whole stack in Docker Compose on a dev laptop · mixed natural-language queries · 20s per rate · 0 errors</text><line x1="46" y1="340" x2="742" y2="340" stroke="#30363d" stroke-width="1"/><text x="38" y="344" font-family="-apple-system,'Segoe UI',system-ui,sans-serif" font-size="11" fill="#8b949e" text-anchor="end">0</text><line x1="46" y1="284.8" x2="742" y2="284.8" stroke="#30363d" stroke-width="1"/><text x="38" y="288.8" font-family="-apple-system,'Segoe UI',system-ui,sans-serif" font-size="11" fill="#8b949e" text-anchor="end">2</text><line x1="46" y1="229.6" x2="742" y2="229.6" stroke="#30363d" stroke-width="1"/><text x="38" y="233.6" font-family="-apple-system,'Segoe UI',system-ui,sans-serif" font-size="11" fill="#8b949e" text-anchor="end">4</text><line x1="46" y1="174.4" x2="742" y2="174.4" stroke="#30363d" stroke-width="1"/><text x="38" y="178.4" font-family="-apple-system,'Segoe UI',system-ui,sans-serif" font-size="11" fill="#8b949e" text-anchor="end">6</text><line x1="46" y1="119.19999999999999" x2="742" y2="119.19999999999999" stroke="#30363d" stroke-width="1"/><text x="38" y="123.19999999999999" font-family="-apple-system,'Segoe UI',system-ui,sans-serif" font-size="11" fill="#8b949e" text-anchor="end">8</text><line x1="46" y1="64" x2="742" y2="64" stroke="#30363d" stroke-width="1"/><text x="38" y="68" font-family="-apple-system,'Segoe UI',system-ui,sans-serif" font-size="11" fill="#8b949e" text-anchor="end">10</text><text x="14" y="54" font-family="-apple-system,'Segoe UI',system-ui,sans-serif" font-size="11" fill="#8b949e">ms</text><path d="M71.6,340 L71.6,233.6 Q71.6,229.6 75.6,229.6 L93.6,229.6 Q97.6,229.6 97.6,233.6 L97.6,340 Z" fill="#f79fc4"/><path d="M102.6,340 L102.6,206 Q102.6,202 106.6,202 L124.6,202 Q128.6,202 128.6,206 L128.6,340 Z" fill="#c75f87"/><path d="M133.6,340 L133.6,150.8 Q133.6,146.8 137.6,146.8 L155.6,146.8 Q159.6,146.8 159.6,150.8 L159.6,340 Z" fill="#94395d"/><text x="146.6" y="140.8" font-family="-apple-system,'Segoe UI',system-ui,sans-serif" font-size="11" font-weight="600" fill="#8b949e" text-anchor="middle">7</text><text x="115.6" y="364" font-family="-apple-system,'Segoe UI',system-ui,sans-serif" font-size="12" fill="#8b949e" text-anchor="middle">25 rps</text><path d="M210.79999999999998,340 L210.79999999999998,233.6 Q210.79999999999998,229.6 214.79999999999998,229.6 L232.79999999999998,229.6 Q236.79999999999998,229.6 236.79999999999998,233.6 L236.79999999999998,340 Z" fill="#f79fc4"/><path d="M241.79999999999998,340 L241.79999999999998,206 Q241.79999999999998,202 245.79999999999998,202 L263.79999999999995,202 Q267.79999999999995,202 267.79999999999995,206 L267.79999999999995,340 Z" fill="#c75f87"/><path d="M272.79999999999995,340 L272.79999999999995,150.8 Q272.79999999999995,146.8 276.79999999999995,146.8 L294.79999999999995,146.8 Q298.79999999999995,146.8 298.79999999999995,150.8 L298.79999999999995,340 Z" fill="#94395d"/><text x="285.79999999999995" y="140.8" font-family="-apple-system,'Segoe UI',system-ui,sans-serif" font-size="11" font-weight="600" fill="#8b949e" text-anchor="middle">7</text><text x="254.79999999999998" y="364" font-family="-apple-system,'Segoe UI',system-ui,sans-serif" font-size="12" fill="#8b949e" text-anchor="middle">50 rps</text><path d="M350,340 L350,233.6 Q350,229.6 354,229.6 L372,229.6 Q376,229.6 376,233.6 L376,340 Z" fill="#f79fc4"/><path d="M381,340 L381,206 Q381,202 385,202 L403,202 Q407,202 407,206 L407,340 Z" fill="#c75f87"/><path d="M412,340 L412,178.4 Q412,174.4 416,174.4 L434,174.4 Q438,174.4 438,178.4 L438,340 Z" fill="#94395d"/><text x="425" y="168.4" font-family="-apple-system,'Segoe UI',system-ui,sans-serif" font-size="11" font-weight="600" fill="#8b949e" text-anchor="middle">6</text><text x="394" y="364" font-family="-apple-system,'Segoe UI',system-ui,sans-serif" font-size="12" fill="#8b949e" text-anchor="middle">100 rps</text><path d="M489.19999999999993,340 L489.19999999999993,233.6 Q489.19999999999993,229.6 493.19999999999993,229.6 L511.19999999999993,229.6 Q515.1999999999999,229.6 515.1999999999999,233.6 L515.1999999999999,340 Z" fill="#f79fc4"/><path d="M520.1999999999999,340 L520.1999999999999,206 Q520.1999999999999,202 524.1999999999999,202 L542.1999999999999,202 Q546.1999999999999,202 546.1999999999999,206 L546.1999999999999,340 Z" fill="#c75f87"/><path d="M551.1999999999999,340 L551.1999999999999,178.4 Q551.1999999999999,174.4 555.1999999999999,174.4 L573.1999999999999,174.4 Q577.1999999999999,174.4 577.1999999999999,178.4 L577.1999999999999,340 Z" fill="#94395d"/><text x="564.1999999999999" y="168.4" font-family="-apple-system,'Segoe UI',system-ui,sans-serif" font-size="11" font-weight="600" fill="#8b949e" text-anchor="middle">6</text><text x="533.1999999999999" y="364" font-family="-apple-system,'Segoe UI',system-ui,sans-serif" font-size="12" fill="#8b949e" text-anchor="middle">200 rps</text><path d="M628.4,340 L628.4,233.6 Q628.4,229.6 632.4,229.6 L650.4,229.6 Q654.4,229.6 654.4,233.6 L654.4,340 Z" fill="#f79fc4"/><path d="M659.4,340 L659.4,206 Q659.4,202 663.4,202 L681.4,202 Q685.4,202 685.4,206 L685.4,340 Z" fill="#c75f87"/><path d="M690.4,340 L690.4,150.8 Q690.4,146.8 694.4,146.8 L712.4,146.8 Q716.4,146.8 716.4,150.8 L716.4,340 Z" fill="#94395d"/><text x="703.4" y="140.8" font-family="-apple-system,'Segoe UI',system-ui,sans-serif" font-size="11" font-weight="600" fill="#8b949e" text-anchor="middle">7</text><text x="672.4" y="364" font-family="-apple-system,'Segoe UI',system-ui,sans-serif" font-size="12" fill="#8b949e" text-anchor="middle">400 rps</text><rect x="520" y="18" width="12" height="12" rx="3" fill="#f79fc4"/><text x="538" y="28" font-family="-apple-system,'Segoe UI',system-ui,sans-serif" font-size="12" fill="#8b949e">p50</text><rect x="594" y="18" width="12" height="12" rx="3" fill="#c75f87"/><text x="612" y="28" font-family="-apple-system,'Segoe UI',system-ui,sans-serif" font-size="12" fill="#8b949e">p95</text><rect x="668" y="18" width="12" height="12" rx="3" fill="#94395d"/><text x="686" y="28" font-family="-apple-system,'Segoe UI',system-ui,sans-serif" font-size="12" fill="#8b949e">p99</text><line x1="46" y1="340" x2="742" y2="340" stroke="#6e7681" stroke-width="1"/></svg>